<svg width="144" height="24" viewBox="0 0 144 24" fill="none" xmlns="http://www.w3.org/2000/svg">
<path fill-rule="evenodd" clip-rule="evenodd" d="M135.65 7.4896L135.379 7.83446L135.166 7.44959C134.476 6.18552 133.289 5.54407 131.635 5.54407C129.904 5.54407 128.742 6.51507 128.203 7.09179L127.849 7.47548L127.714 6.96938C127.516 6.24201 126.87 5.84184 125.894 5.84184H124.465L124.449 18.9215H127.873V13.1485C127.873 12.6412 127.935 12.141 128.061 11.6184C128.403 10.2237 129.336 8.72307 130.906 8.87372C131.875 8.99142 132.313 9.6976 132.313 11.1688V18.9227H135.541V13.1497C135.541 12.5165 135.6 12.0445 135.742 11.5702C136.03 10.239 137.219 8.87372 138.733 8.87372C139.83 8.87372 140.374 9.46221 140.374 11.1688V17.0101C140.374 18.3048 141.195 18.8933 142.484 18.9227H143.871L143.876 10.5733C143.917 7.24832 142.389 5.54407 139.576 5.54407C138.031 5.54407 136.608 6.27144 135.65 7.4896Z" fill="white"/>
<path fill-rule="evenodd" clip-rule="evenodd" d="M109.154 12.3833C109.154 16.2673 112.202 19.2097 116.187 19.2097C120.153 19.2097 123.036 16.3497 123.036 12.4092C123.06 8.48162 120.15 5.53918 116.165 5.53918C112.209 5.53918 109.154 8.44513 109.154 12.3833ZM116.209 16.0048C114.342 16.0048 113.041 14.5136 113.041 12.3833C113.041 10.2565 114.342 8.76644 116.209 8.76644C118.087 8.76644 119.374 10.2965 119.374 12.3833C119.403 14.6019 118.157 16.0142 116.165 16.0142L116.209 16.0048Z" fill="white"/>
<path fill-rule="evenodd" clip-rule="evenodd" d="M106.705 14.3818C106.694 14.3924 105.162 16.0142 103.146 16.0142C101.308 16.0142 99.4526 14.8832 99.4526 12.3562C99.4526 10.1729 100.892 8.64757 102.952 8.64757C103.622 8.64757 104.358 8.88296 104.476 9.29255L104.493 9.36199C104.766 10.3036 105.548 10.3036 105.783 10.3271H107.734V8.61461C107.734 6.35836 104.874 5.53918 102.949 5.53918C98.8326 5.53918 95.8481 8.4157 95.8481 12.3774C95.8481 16.3791 98.7786 19.2038 102.881 19.2038C106.414 19.2038 108.336 16.8722 108.354 16.8464L108.456 16.7216L106.913 14.1499L106.705 14.3818Z" fill="white"/>
<path fill-rule="evenodd" clip-rule="evenodd" d="M92.5458 19.059C93.79 19.059 94.7986 18.0567 94.7986 16.8202C94.7986 15.5838 93.79 14.5814 92.5458 14.5814C91.3016 14.5814 90.293 15.5838 90.293 16.8202C90.293 18.0567 91.3016 19.059 92.5458 19.059Z" fill="white"/>
<path fill-rule="evenodd" clip-rule="evenodd" d="M85.322 6.56452L85.2177 6.76461L85.0454 6.61513C84.4429 6.09138 83.3645 5.47229 81.6132 5.47229C78.1283 5.47229 75.7827 8.10047 75.7827 12.0115C75.7827 15.8956 78.2443 18.6026 81.6437 18.6026C82.8276 18.6026 83.7677 18.3248 84.5097 17.7575L84.7992 17.5421V17.9082C84.7992 19.6619 83.6704 20.6293 81.6214 20.6293C80.6251 20.6293 79.7201 20.3845 79.1153 20.1644C78.3229 19.9232 77.8598 20.1221 77.541 20.9177L77.2444 21.6557L76.8271 22.7279L77.085 22.8668C78.3955 23.5729 80.1327 23.926 81.6566 23.926C84.8297 23.926 88.2561 22.2936 88.2561 17.7022L88.269 5.66296H86.8459C86.1379 5.66296 85.594 6.04783 85.322 6.56452ZM79.5818 11.9127C79.5818 11.1747 79.7682 8.7737 82.1489 8.7737C83.3328 8.7737 84.9622 9.12679 84.9622 12.0363C84.9094 14.781 83.4606 15.3694 82.2884 15.3694L82.3458 15.3718C80.3074 15.3718 79.5818 13.5852 79.5818 11.9127Z" fill="white"/>
<path fill-rule="evenodd" clip-rule="evenodd" d="M70.2204 5.50044C68.312 5.50044 67.0929 6.35257 66.4107 7.07052L66.1845 7.30356L66.1036 6.98931C65.9032 6.21722 65.228 5.79351 64.2093 5.79351H62.5718L62.5812 18.9238H66.0485V12.8718C66.0485 12.2786 66.1247 11.7655 66.2806 11.297C66.6944 9.87996 67.6345 8.9984 69.0798 8.9984C70.2426 8.9984 70.9553 9.58689 70.9553 11.2076V16.9277C70.9553 18.34 71.7759 18.9285 73.1825 18.9238H74.4614V10.6521C74.3922 7.36594 73.2622 5.48279 70.2145 5.48279" fill="white"/>
<path fill-rule="evenodd" clip-rule="evenodd" d="M60.9163 2.31266C60.9163 3.54912 59.9077 4.55146 58.6635 4.55146C57.4193 4.55146 56.4106 3.54912 56.4106 2.31266C56.4106 1.0762 57.4193 0.0738525 58.6635 0.0738525C59.9077 0.0738525 60.9163 1.0762 60.9163 2.31266ZM60.4409 7.79438V18.9191V19.0286H57.0205L57.0099 15.9508H57.0205L57.0099 5.79706L58.4799 5.80294C59.8033 5.80294 60.4409 6.45381 60.4409 7.79438Z" fill="white"/>
<path fill-rule="evenodd" clip-rule="evenodd" d="M52.4102 12.6695C52.2566 12.3788 52.082 12.1328 51.8944 11.9374L51.7748 11.8115L51.9003 11.6891C52.082 11.4972 52.2672 11.2712 52.4453 11.0064L55.9338 5.80067H51.6987L49.0788 9.873C48.9311 10.0919 48.631 10.2014 48.1832 10.2014H47.2783V2.5028C47.2783 0.962139 46.2257 0.182983 45.193 0.182983H43.8027L43.8051 18.9298H47.2783V13.4769H47.9382C48.3661 13.4769 48.6416 13.4769 48.7588 13.7594L50.8289 17.6434C51.4068 18.7026 52.0011 18.938 53.0561 18.8898H55.9303L53.7887 15.3318L52.4102 12.6695Z" fill="white"/>
<path fill-rule="evenodd" clip-rule="evenodd" d="M28.7905 12.3281C28.7905 16.2121 31.6038 19.1545 35.5893 19.1545C39.5536 19.1545 42.4396 16.2956 42.4396 12.3551C42.4677 8.42522 39.6205 5.48279 35.635 5.48279C31.6788 5.48279 28.7905 8.39109 28.7905 12.3281ZM35.6162 15.9484C33.7489 15.9484 32.4478 14.4596 32.4478 12.3281C32.4478 10.2001 33.7489 8.71122 35.6162 8.71122C37.4941 8.71122 38.7812 10.2413 38.7812 12.3281C38.8105 14.5455 37.5105 15.9578 35.635 15.9578L35.6162 15.9484Z" fill="white"/>
<path fill-rule="evenodd" clip-rule="evenodd" d="M13.8599 12.3281C13.8599 16.2121 16.6731 19.1545 20.6586 19.1545C24.6253 19.1545 27.5078 16.2956 27.5078 12.3551C27.53 8.42522 24.6159 5.48279 20.6305 5.48279C16.6767 5.48279 13.8599 8.39109 13.8599 12.3281ZM20.6821 15.9484C18.8136 15.9484 17.5159 14.4596 17.5159 12.3281C17.5159 10.2001 18.8136 8.71122 20.6821 8.71122C22.5623 8.71122 23.847 10.2413 23.847 12.3281C23.8739 14.5455 22.6232 15.9578 20.6305 15.9578L20.6821 15.9484Z" fill="white"/>
<path fill-rule="evenodd" clip-rule="evenodd" d="M9.83004 9.29742L10.3095 8.88666C10.8663 8.40645 11.8005 7.32599 11.8005 5.45814C11.8005 2.60045 9.59326 0.87854 6.17748 0.87854H2.52843H2.27758H2.08534C1.07256 0.892664 0 1.95194 0 2.97237V3.8657V17.0572V19.0298H1.78877H6.25367C10.0504 19.0298 12.5027 16.7853 12.5027 13.5722C12.5038 11.8385 11.722 10.3084 10.4326 9.60226L9.83004 9.29742ZM3.4697 5.9713V5.01207C3.4697 4.17406 3.82371 3.77389 4.5997 3.72446H6.15169C7.48331 3.72446 8.26164 4.54834 8.26164 5.86302C8.26164 6.88345 7.7154 7.85799 6.18099 7.85799H3.4697V5.9713ZM3.4697 15.5389V13.1108V12.1516C3.4697 11.3724 3.77096 10.9687 4.43559 10.8769H6.50452C7.98149 10.8769 8.96614 11.8185 8.96614 13.3486C8.93449 14.8986 8.02838 15.5389 6.50452 15.5389H3.4697Z" fill="white"/>
</svg>
