<svg width="30" height="30" viewBox="0 0 30 30" fill="none" xmlns="http://www.w3.org/2000/svg">
<path fill-rule="evenodd" clip-rule="evenodd" d="M15 0C6.71573 0 0 6.71573 0 15C0 23.2843 6.71573 30 15 30C23.2843 30 30 23.2843 30 15C30 6.71573 23.2843 0 15 0ZM15 7C17.7614 7 20 9.23858 20 12C20 14.7614 17.7614 17 15 17C12.2386 17 10 14.7614 10 12C10 9.23858 12.2386 7 15 7ZM5.3075 22.0625C7.56402 25.1622 11.1659 26.9971 15 27C18.8341 26.9971 22.436 25.1622 24.6925 22.0625C19 17.98 11 17.98 5.3075 22.0625Z" fill="white"/>
</svg>
